<!-- Generated by IcoMoon.io -->
<svg version="1.1" xmlns="http://www.w3.org/2000/svg" width="640" height="640" viewBox="0 0 640 640">
<title></title>
<g id="icomoon-ignore">
</g>
<path d="M635.84 206.496c3.808 8.224 4.064 41.28-156.288 116.544l-157.216 73.792c-54.72 25.696-134.112 59.488-169.12 68.832-24.512 6.528-47.904-10.112-47.904-10.112s-70.592-63.2-89.344-77.408c-18.72-14.208-17.12-21.44 6.88-29.12 14.944-4.768 100.16 15.776 136.48 24.96 42.848-25.6 81.984-47.552 100.512-57.536-44.672-33.056-128.256-94.784-154.912-113.6-25.568-18.080 0.32-24.576 0.32-24.576 11.776-3.168 37.184-7.296 49.984-4.608 87.072 18.208 232.416 66.272 243.552 69.952 26.624-13.952 68.096-34.944 93.504-46.88 66.4-31.168 138.464-1.184 143.552 9.76z"></path>
</svg>
