<!-- Generated by IcoMoon.io -->
<svg version="1.1" xmlns="http://www.w3.org/2000/svg" width="640" height="640" viewBox="0 0 640 640">
<title></title>
<g id="icomoon-ignore">
</g>
<path d="M566.112 151.2c-16.096-95.264-103.040-158.944-194.208-142.112-91.2 16.8-168.192 90.112-152.096 185.44 3.424 20.512 13.056 52.608 24.416 75.68l-165.6 247.136c-6.112 9.12-9.568 25.568-7.744 36.512l10.656 63.072c1.856 10.944 11.904 18.304 22.4 16.448l48.512-8.992c10.496-1.888 23.808-11.136 29.568-20.448l65.504-105.952 0.576-0.704 44.352-8.192 76.48-124.128c25.12 4.448 61.184 2.944 82.496-0.992 91.136-16.832 130.784-117.44 114.688-212.768zM485.312 200.064c-25.088 37.44-50.688 11.072-86.496-15.2-35.808-26.176-68.32-42.304-43.264-79.744 25.088-37.44 74.432-46.56 110.304-20.32 35.84 26.208 44.512 77.824 19.456 115.264z"></path>
</svg>
