<!-- Generated by IcoMoon.io -->
<svg version="1.1" xmlns="http://www.w3.org/2000/svg" width="640" height="640" viewBox="0 0 640 640">
<title></title>
<g id="icomoon-ignore">
</g>
<path d="M622.304 118.976l-192-96c-8.992-4.512-19.616-4.512-28.64 0l-180.16 90.080-179.392-59.808c-9.792-3.264-20.48-1.632-28.832 4.416-8.352 6.016-13.28 15.68-13.28 25.952v416.032c0 12.128 6.848 23.2 17.696 28.608l192 96c4.512 2.24 9.408 3.392 14.304 3.392s9.824-1.12 14.304-3.392l180.16-90.048 179.392 59.808c9.76 3.2 20.48 1.568 28.832-4.448s13.28-15.68 13.28-25.92v-416.064c0.032-12.128-6.816-23.2-17.664-28.608zM256 167.392l128-64v376.416l-128 64v-376.416zM64 128l128 42.656v373.152l-128-64v-351.808zM576 519.264l-128-42.688v-373.184l128 64v351.872z"></path>
</svg>
